{
  "asset": {
    "version": "2.0",
    "generator": "malcolmston/go parity fixture generator"
  },
  "scene": 0,
  "scenes": [
    {
      "name": "main",
      "nodes": [
        0
      ]
    }
  ],
  "nodes": [
    {
      "name": "triNode",
      "mesh": 0
    }
  ],
  "meshes": [
    {
      "name": "tri",
      "primitives": [
        {
          "attributes": {
            "POSITION": 0
          },
          "indices": 1,
          "material": 0
        }
      ]
    }
  ],
  "accessors": [
    {
      "componentType": 5126,
      "count": 3,
      "type": "VEC3",
      "bufferView": 0,
      "name": "positions",
      "min": [
        0,
        0,
        0
      ],
      "max": [
        1,
        1,
        0
      ]
    },
    {
      "componentType": 5123,
      "count": 3,
      "type": "SCALAR",
      "bufferView": 1,
      "name": "indices",
      "min": [
        0
      ],
      "max": [
        2
      ]
    }
  ],
  "bufferViews": [
    {
      "buffer": 0,
      "byteOffset": 0,
      "byteLength": 36,
      "target": 34962
    },
    {
      "buffer": 0,
      "byteOffset": 36,
      "byteLength": 6,
      "target": 34963
    }
  ],
  "buffers": [
    {
      "byteLength": 44,
      "uri": "data:application/octet-stream;base64,"
    }
  ],
  "materials": [
    {
      "name": "flat",
      "pbrMetallicRoughness": {
        "baseColorFactor": [
          0.8,
          0.2,
          0.1,
          1
        ],
        "metallicFactor": 0.25,
        "roughnessFactor": 0.75
      },
      "alphaMode": "GHOST"
    }
  ]
}
